<svg width="75" height="55" viewBox="0 0 75 55" fill="none" xmlns="http://www.w3.org/2000/svg">
<circle cx="27.5" cy="27.5" r="27.5" fill="#364250"/>
<mask id="path-2-inside-1_4_10" fill="white">
<path d="M31.4188 50.1328C35.4358 52.9053 40.1184 54.5587 44.9857 54.9232C49.853 55.2877 54.7297 54.3502 59.1149 52.207C63.5001 50.0637 67.2358 46.7919 69.9386 42.7276C72.6413 38.6633 74.2136 33.9528 74.494 29.08C74.7744 24.2071 73.7529 19.3474 71.5342 14.9998C69.3156 10.6523 65.9798 6.97357 61.8694 4.34141C57.7591 1.70925 53.0222 0.218502 48.1452 0.0222404C43.2682 -0.174021 38.4269 0.931274 34.1183 3.22463L47.0394 27.5L31.4188 50.1328Z"/>
</mask>
<path d="M31.4188 50.1328C35.4358 52.9053 40.1184 54.5587 44.9857 54.9232C49.853 55.2877 54.7297 54.3502 59.1149 52.207C63.5001 50.0637 67.2358 46.7919 69.9386 42.7276C72.6413 38.6633 74.2136 33.9528 74.494 29.08C74.7744 24.2071 73.7529 19.3474 71.5342 14.9998C69.3156 10.6523 65.9798 6.97357 61.8694 4.34141C57.7591 1.70925 53.0222 0.218502 48.1452 0.0222404C43.2682 -0.174021 38.4269 0.931274 34.1183 3.22463L47.0394 27.5L31.4188 50.1328Z" stroke="#364250" stroke-width="7.23684" mask="url(#path-2-inside-1_4_10)"/>
<path d="M37.1894 3.7918L37.2878 3.84097C32.6653 5.74622 28.6977 8.96606 25.8807 13.1072C22.9523 17.4124 21.4067 22.5084 21.4505 27.7149C21.4942 32.9215 23.1251 37.9908 26.1255 42.2461C28.9216 46.2119 32.7832 49.2948 37.2534 51.1448L37.1428 51.2044C32.5985 49.3779 28.9111 46.372 26.043 42.3042C23.0309 38.0321 21.3935 32.9428 21.3496 27.7158C21.3057 22.4887 22.8574 17.3726 25.7974 13.0505C28.584 8.95386 32.6041 5.71976 37.1894 3.7918Z" stroke="#F3F5F7" stroke-width="3.61842"/>
</svg>
