<svg width="40" height="40" viewBox="0 0 40 40" fill="none" xmlns="http://www.w3.org/2000/svg">
<path d="M12.5 9C11.5717 9 10.6815 9.36875 10.0251 10.0251C9.36875 10.6815 9 11.5717 9 12.5V27.5C9 29.432 10.568 31 12.5 31H27.5C28.4283 31 29.3185 30.6313 29.9749 29.9749C30.6313 29.3185 31 28.4283 31 27.5V23.5C31 23.1022 31.158 22.7206 31.4393 22.4393C31.7206 22.158 32.1022 22 32.5 22C32.8978 22 33.2794 22.158 33.5607 22.4393C33.842 22.7206 34 23.1022 34 23.5V27.5C34 29.2239 33.3152 30.8772 32.0962 32.0962C30.8772 33.3152 29.2239 34 27.5 34H12.5C10.7761 34 9.12279 33.3152 7.90381 32.0962C6.68482 30.8772 6 29.2239 6 27.5V12.5C6 10.7761 6.68482 9.12279 7.90381 7.90381C9.12279 6.68482 10.7761 6 12.5 6H16.5C16.8978 6 17.2794 6.15804 17.5607 6.43934C17.842 6.72064 18 7.10218 18 7.5C18 7.89782 17.842 8.27936 17.5607 8.56066C17.2794 8.84196 16.8978 9 16.5 9H12.5ZM21 7.5C21 7.10218 21.158 6.72064 21.4393 6.43934C21.7206 6.15804 22.1022 6 22.5 6H32.5C32.8978 6 33.2794 6.15804 33.5607 6.43934C33.842 6.72064 34 7.10218 34 7.5V17.5C34 17.8978 33.842 18.2794 33.5607 18.5607C33.2794 18.842 32.8978 19 32.5 19C32.1022 19 31.7206 18.842 31.4393 18.5607C31.158 18.2794 31 17.8978 31 17.5V11.12L23.56 18.56C23.4227 18.7074 23.2571 18.8256 23.0731 18.9076C22.8891 18.9895 22.6905 19.0336 22.489 19.0372C22.2876 19.0407 22.0876 19.0037 21.9008 18.9282C21.714 18.8528 21.5444 18.7405 21.4019 18.5981C21.2595 18.4556 21.1472 18.286 21.0718 18.0992C20.9963 17.9124 20.9593 17.7124 20.9628 17.511C20.9664 17.3096 21.0105 17.1109 21.0924 16.9269C21.1744 16.7429 21.2926 16.5773 21.44 16.44L28.88 9H22.5C22.1022 9 21.7206 8.84196 21.4393 8.56066C21.158 8.27936 21 7.89782 21 7.5Z" fill="#4F5460" fill-opacity="0.91"/>
</svg>
